<svg width="81" height="81" viewBox="0 0 81 81" fill="none" xmlns="http://www.w3.org/2000/svg">
<circle cx="40.5" cy="40.5" r="40.5" fill="white"/>
<path d="M17.4416 32.4053C17.3993 32.363 17.3537 32.3044 17.3049 32.2295C17.2561 32.1514 17.2089 32.0716 17.1633 31.9902C17.1535 31.974 17.1275 31.93 17.0852 31.8584C17.0428 31.7868 17.0038 31.7249 16.968 31.6729C16.9322 31.6208 16.898 31.5785 16.8654 31.5459C16.6473 31.3278 16.4048 31.165 16.1379 31.0576C15.8742 30.9502 15.5959 30.8965 15.3029 30.8965C14.8798 30.8965 14.4842 31.0072 14.1164 31.2285C13.7518 31.4466 13.4589 31.7656 13.2375 32.1855C13.0194 32.6055 12.9104 33.1035 12.9104 33.6797C12.9104 34.2689 13.0161 34.7848 13.2277 35.2275C13.4426 35.667 13.7453 36.0072 14.1359 36.248C14.5298 36.4857 14.9872 36.6045 15.508 36.6045C15.9507 36.6045 16.343 36.5133 16.6848 36.3311C17.0298 36.1455 17.2967 35.8737 17.4855 35.5156L17.7248 35.5498L17.6809 36.4727C17.326 36.6712 16.9159 36.8307 16.4504 36.9512C15.9882 37.0684 15.5568 37.127 15.1564 37.127C14.5184 37.127 13.9423 36.9951 13.4279 36.7314C12.9136 36.4678 12.5083 36.0902 12.2121 35.5986C11.9159 35.1071 11.7678 34.5326 11.7678 33.875C11.7678 33.2533 11.9191 32.6868 12.2219 32.1758C12.5246 31.6647 12.9543 31.2611 13.5109 30.9648C14.0676 30.6686 14.7105 30.5205 15.4396 30.5205C16.107 30.5205 16.784 30.654 17.4709 30.9209L17.6711 32.3955L17.4416 32.4053ZM20.4437 31.9512C20.4437 31.6875 20.4226 31.4954 20.3803 31.375C20.338 31.2513 20.2761 31.1683 20.1947 31.126C20.1133 31.0837 19.9815 31.0446 19.7992 31.0088C19.5779 30.96 19.4184 30.9209 19.3207 30.8916L19.3305 30.6426H22.6312V30.8965C22.5368 30.9355 22.4522 30.9648 22.3773 30.9844C22.3025 31.0007 22.2032 31.0202 22.0795 31.043C21.9232 31.069 21.8077 31.1016 21.7328 31.1406C21.6579 31.1764 21.5993 31.2529 21.557 31.3701C21.518 31.4873 21.4984 31.6712 21.4984 31.9219V35.4766C21.4984 35.8704 21.5359 36.1439 21.6107 36.2969C21.6889 36.4466 21.8337 36.541 22.0453 36.5801C22.2569 36.6191 22.6443 36.6387 23.2074 36.6387C23.5655 36.6387 23.8666 36.5931 24.1107 36.502C24.3581 36.4076 24.5551 36.2204 24.7016 35.9404L24.7748 35.7939C24.8269 35.6865 24.8741 35.597 24.9164 35.5254C24.9587 35.4505 25.0076 35.3822 25.0629 35.3203L25.3559 35.3301L25.0482 37.0537C24.612 37.0179 24.2556 37 23.9789 37H19.3256L19.3158 36.7363C19.3646 36.7201 19.4688 36.6891 19.6283 36.6436C19.8139 36.5947 19.9604 36.5475 20.0678 36.502C20.1752 36.4531 20.2647 36.3766 20.3363 36.2725C20.4079 36.165 20.4437 36.0169 20.4437 35.8281V31.9512ZM30.0377 30.5205C30.6497 30.5205 31.2112 30.6572 31.7223 30.9307C32.2333 31.2041 32.6386 31.5931 32.9381 32.0977C33.2408 32.599 33.3922 33.1784 33.3922 33.8359C33.3922 34.4805 33.2359 35.0534 32.9234 35.5547C32.6142 36.0527 32.1959 36.4401 31.6686 36.7168C31.1412 36.9902 30.565 37.127 29.94 37.127C29.3639 37.127 28.8251 36.9951 28.3238 36.7314C27.8225 36.4678 27.4189 36.0902 27.1129 35.5986C26.8102 35.1071 26.6588 34.5374 26.6588 33.8896C26.6588 33.1768 26.8183 32.5664 27.1373 32.0586C27.4596 31.5508 27.8779 31.1683 28.3922 30.9111C28.9098 30.6507 29.4583 30.5205 30.0377 30.5205ZM30.1988 36.751C30.5895 36.751 30.941 36.6468 31.2535 36.4385C31.566 36.2301 31.8102 35.929 31.9859 35.5352C32.165 35.1413 32.2545 34.6774 32.2545 34.1436C32.2545 33.5381 32.1536 32.9896 31.9518 32.498C31.7499 32.0033 31.4667 31.6126 31.1021 31.3262C30.7408 31.0397 30.329 30.8965 29.8668 30.8965C29.4859 30.8965 29.1376 30.9958 28.8219 31.1943C28.5094 31.3896 28.2604 31.6826 28.0748 32.0732C27.8893 32.4639 27.7965 32.9342 27.7965 33.4844C27.7965 34.0964 27.899 34.6514 28.1041 35.1494C28.3092 35.6475 28.594 36.0397 28.9586 36.3262C29.3264 36.6094 29.7398 36.751 30.1988 36.751ZM40.9646 32.4053C40.9223 32.363 40.8768 32.3044 40.8279 32.2295C40.7791 32.1514 40.7319 32.0716 40.6863 31.9902C40.6766 31.974 40.6505 31.93 40.6082 31.8584C40.5659 31.7868 40.5268 31.7249 40.491 31.6729C40.4552 31.6208 40.421 31.5785 40.3885 31.5459C40.1704 31.3278 39.9279 31.165 39.6609 31.0576C39.3973 30.9502 39.1189 30.8965 38.826 30.8965C38.4028 30.8965 38.0073 31.0072 37.6395 31.2285C37.2749 31.4466 36.9819 31.7656 36.7605 32.1855C36.5424 32.6055 36.4334 33.1035 36.4334 33.6797C36.4334 34.2689 36.5392 34.7848 36.7508 35.2275C36.9656 35.667 37.2684 36.0072 37.659 36.248C38.0529 36.4857 38.5102 36.6045 39.0311 36.6045C39.4738 36.6045 39.866 36.5133 40.2078 36.3311C40.5529 36.1455 40.8198 35.8737 41.0086 35.5156L41.2479 35.5498L41.2039 36.4727C40.8491 36.6712 40.4389 36.8307 39.9734 36.9512C39.5112 37.0684 39.0799 37.127 38.6795 37.127C38.0415 37.127 37.4653 36.9951 36.951 36.7314C36.4367 36.4678 36.0314 36.0902 35.7352 35.5986C35.4389 35.1071 35.2908 34.5326 35.2908 33.875C35.2908 33.2533 35.4422 32.6868 35.7449 32.1758C36.0477 31.6647 36.4773 31.2611 37.034 30.9648C37.5906 30.6686 38.2335 30.5205 38.9627 30.5205C39.63 30.5205 40.3071 30.654 40.9939 30.9209L41.1941 32.3955L40.9646 32.4053ZM45.4219 33.4551L47.6484 31.248C47.6615 31.209 47.668 31.1732 47.668 31.1406C47.668 31.0495 47.6289 30.9893 47.5508 30.96C47.4727 30.9307 47.3538 30.9079 47.1943 30.8916C47.0674 30.8786 46.973 30.8623 46.9111 30.8428C46.8525 30.8232 46.8232 30.7858 46.8232 30.7305C46.8232 30.7207 46.8314 30.6914 46.8477 30.6426H49.6016L49.6211 30.7305C49.6211 30.7728 49.5592 30.8151 49.4355 30.8574C49.3118 30.8997 49.1426 30.9437 48.9277 30.9893C48.6152 31.0576 48.3841 31.1536 48.2344 31.2773L46.3398 33.2207L48.625 36.3652C48.6673 36.4108 48.7389 36.4548 48.8398 36.4971C48.944 36.5361 49.0824 36.5833 49.2549 36.6387C49.4372 36.694 49.5755 36.7428 49.6699 36.7852C49.7676 36.8275 49.8164 36.8698 49.8164 36.9121C49.8164 36.9479 49.8099 36.9772 49.7969 37H46.457C46.4375 36.9577 46.4277 36.93 46.4277 36.917C46.4277 36.8682 46.457 36.834 46.5156 36.8145C46.5775 36.7917 46.6735 36.7705 46.8037 36.751C46.96 36.7282 47.0771 36.7021 47.1553 36.6729C47.2367 36.6403 47.2773 36.5833 47.2773 36.502C47.2773 36.4694 47.2497 36.4173 47.1943 36.3457L45.4414 33.7773H45.002V36.3945C45.002 36.4954 45.0345 36.5719 45.0996 36.624C45.168 36.6729 45.2493 36.7054 45.3438 36.7217C45.4382 36.7347 45.5586 36.7445 45.7051 36.751C45.8646 36.7607 45.9801 36.7754 46.0518 36.7949C46.1234 36.8112 46.1592 36.8486 46.1592 36.9072C46.1592 36.9137 46.151 36.9447 46.1348 37H42.8633C42.8503 36.9609 42.8438 36.9333 42.8438 36.917C42.8438 36.8617 42.8796 36.8242 42.9512 36.8047C43.0228 36.7819 43.1318 36.7624 43.2783 36.7461C43.4215 36.7266 43.5371 36.707 43.625 36.6875C43.7129 36.668 43.7894 36.6322 43.8545 36.5801C43.9196 36.528 43.9521 36.4564 43.9521 36.3652V31.3066C43.9521 31.1797 43.8919 31.0902 43.7715 31.0381C43.651 30.986 43.4818 30.9437 43.2637 30.9111C43.1139 30.8851 43.0049 30.8607 42.9365 30.8379C42.8714 30.8151 42.8389 30.7793 42.8389 30.7305C42.8389 30.7207 42.847 30.6914 42.8633 30.6426H46.1152C46.1283 30.6849 46.1348 30.7126 46.1348 30.7256C46.1348 30.7809 46.099 30.82 46.0273 30.8428C45.9557 30.8656 45.8434 30.8883 45.6904 30.9111C45.5439 30.9339 45.4251 30.9567 45.334 30.9795C45.2428 31.0023 45.1647 31.0397 45.0996 31.0918C45.0345 31.1439 45.002 31.2155 45.002 31.3066V33.4551H45.4219ZM55.767 31.0039C55.4675 31.0039 55.2299 31.0169 55.0541 31.043C54.9402 31.0592 54.836 31.1048 54.7416 31.1797C54.6505 31.2546 54.5707 31.3392 54.5023 31.4336C54.4372 31.528 54.3575 31.6549 54.2631 31.8145C54.1654 31.987 54.0808 32.1172 54.0092 32.2051H53.7846L53.9066 30.6133C54.4437 30.6361 55.1371 30.6475 55.9867 30.6475L57.891 30.6426H58.5307C59.1882 30.6426 59.7204 30.6296 60.1273 30.6035L60.2836 32.21H60.0492C60.0004 32.1514 59.9499 32.0781 59.8979 31.9902C59.8458 31.8991 59.8116 31.8405 59.7953 31.8145C59.6651 31.5833 59.543 31.4027 59.4291 31.2725C59.3184 31.1423 59.1866 31.0658 59.0336 31.043C58.9229 31.0267 58.8106 31.0169 58.6967 31.0137C58.586 31.0072 58.446 31.0039 58.2768 31.0039H57.5297V35.8232C57.5297 36.0739 57.572 36.2611 57.6566 36.3848C57.7445 36.5052 57.8585 36.5866 57.9984 36.6289C58.1417 36.6712 58.3533 36.7103 58.6332 36.7461C58.6332 36.86 58.6299 36.9447 58.6234 37H55.391L55.3812 36.7461C55.4366 36.7266 55.5229 36.7005 55.64 36.668C55.8321 36.6094 55.9835 36.554 56.0941 36.502C56.2048 36.4499 56.296 36.3701 56.3676 36.2627C56.4424 36.1553 56.4799 36.0088 56.4799 35.8232V31.0039H55.767ZM65.0728 30.5205C65.6848 30.5205 66.2464 30.6572 66.7574 30.9307C67.2685 31.2041 67.6738 31.5931 67.9732 32.0977C68.276 32.599 68.4273 33.1784 68.4273 33.8359C68.4273 34.4805 68.2711 35.0534 67.9586 35.5547C67.6493 36.0527 67.2311 36.4401 66.7037 36.7168C66.1764 36.9902 65.6002 37.127 64.9752 37.127C64.399 37.127 63.8603 36.9951 63.359 36.7314C62.8577 36.4678 62.454 36.0902 62.148 35.5986C61.8453 35.1071 61.6939 34.5374 61.6939 33.8896C61.6939 33.1768 61.8534 32.5664 62.1725 32.0586C62.4947 31.5508 62.913 31.1683 63.4273 30.9111C63.9449 30.6507 64.4934 30.5205 65.0728 30.5205ZM65.234 36.751C65.6246 36.751 65.9762 36.6468 66.2887 36.4385C66.6012 36.2301 66.8453 35.929 67.0211 35.5352C67.2001 35.1413 67.2896 34.6774 67.2896 34.1436C67.2896 33.5381 67.1887 32.9896 66.9869 32.498C66.7851 32.0033 66.5019 31.6126 66.1373 31.3262C65.776 31.0397 65.3642 30.8965 64.902 30.8965C64.5211 30.8965 64.1728 30.9958 63.857 31.1943C63.5445 31.3896 63.2955 31.6826 63.11 32.0732C62.9244 32.4639 62.8316 32.9342 62.8316 33.4844C62.8316 34.0964 62.9342 34.6514 63.1393 35.1494C63.3443 35.6475 63.6292 36.0397 63.9937 36.3262C64.3616 36.6094 64.775 36.751 65.234 36.751ZM23.832 50.0439C23.7799 50.0537 23.7279 50.0586 23.6758 50.0586C23.6139 50.0586 23.5212 50.0488 23.3975 50.0293C23.2738 50.0098 23.1794 50 23.1143 50H18.1045L18.0947 49.7607C18.1956 49.7054 18.2884 49.6663 18.373 49.6436C18.4609 49.6175 18.557 49.5964 18.6611 49.5801C18.7913 49.5573 18.8857 49.528 18.9443 49.4922C19.0062 49.4564 19.0534 49.3799 19.0859 49.2627C19.1185 49.1423 19.1348 48.9535 19.1348 48.6963V45C19.1348 44.7461 19.1136 44.5589 19.0713 44.4385C19.0322 44.318 18.9736 44.235 18.8955 44.1895C18.8174 44.1406 18.6872 44.0885 18.5049 44.0332C18.4756 44.0234 18.4186 44.0055 18.334 43.9795C18.2526 43.9535 18.1729 43.9242 18.0947 43.8916L18.1045 43.6426H23.085C23.1305 43.6426 23.1794 43.6393 23.2314 43.6328C23.2868 43.6263 23.3258 43.6214 23.3486 43.6182C23.4463 43.6019 23.5342 43.5938 23.6123 43.5938C23.6807 43.5938 23.7409 43.6003 23.793 43.6133V45.1318L23.5391 45.1416C23.4837 45.0863 23.4382 45.0244 23.4023 44.9561C23.3665 44.8877 23.3258 44.7982 23.2803 44.6875C23.2152 44.5247 23.1501 44.3978 23.085 44.3066C23.0231 44.2155 22.9303 44.1488 22.8066 44.1064C22.6243 44.0479 22.3981 44.0104 22.1279 43.9941C21.8577 43.9779 21.5452 43.9697 21.1904 43.9697C20.7738 43.9697 20.445 43.9844 20.2041 44.0137C20.1911 44.1602 20.1846 44.3278 20.1846 44.5166V46.499H21.5908C21.848 46.499 22.04 46.4795 22.167 46.4404C22.2939 46.4014 22.3916 46.3379 22.46 46.25C22.5316 46.1621 22.6292 46.0059 22.7529 45.7812L22.8262 45.6494H23.1045V47.7441L22.8262 47.7588C22.722 47.4788 22.5885 47.2607 22.4258 47.1045C22.2663 46.9482 22.0514 46.8701 21.7812 46.8701H20.1846V48.5156C20.1846 48.8574 20.2236 49.1097 20.3018 49.2725C20.3831 49.4352 20.4987 49.541 20.6484 49.5898C20.8014 49.6354 21.0179 49.6582 21.2979 49.6582H21.7764C22.1865 49.6582 22.5397 49.6126 22.8359 49.5215C23.1354 49.4271 23.3568 49.2367 23.5 48.9502L23.5684 48.7988C23.627 48.6719 23.6742 48.5775 23.71 48.5156C23.7458 48.4505 23.7913 48.3887 23.8467 48.3301H24.1543L23.832 50.0439ZM31.1018 48.8477C31.2971 49.1048 31.4533 49.2855 31.5705 49.3896C31.6909 49.4906 31.8439 49.5671 32.0295 49.6191C32.1141 49.6419 32.1695 49.6582 32.1955 49.668C32.3485 49.707 32.4396 49.7331 32.4689 49.7461C32.4689 49.7917 32.4657 49.8763 32.4592 50H29.2756C29.2691 49.9447 29.2658 49.86 29.2658 49.7461C29.7736 49.6322 30.0275 49.4629 30.0275 49.2383C30.0275 49.196 30.0194 49.1471 30.0031 49.0918C29.9868 49.0365 29.9624 48.9876 29.9299 48.9453L28.6457 47.2412L27.5568 48.5645C27.4494 48.6947 27.3583 48.8281 27.2834 48.9648C27.2085 49.0983 27.1711 49.209 27.1711 49.2969C27.1711 49.4076 27.2411 49.4938 27.3811 49.5557C27.5243 49.6175 27.7212 49.6729 27.9719 49.7217C27.9751 49.751 27.9768 49.7949 27.9768 49.8535C27.9768 49.9154 27.9751 49.9642 27.9719 50H25.4279C25.4214 49.9447 25.4182 49.86 25.4182 49.7461L25.6184 49.6777C25.8169 49.6159 25.9895 49.5508 26.1359 49.4824C26.2857 49.4108 26.4159 49.3148 26.5266 49.1943C26.6112 49.0999 26.7316 48.9583 26.8879 48.7695L28.4162 46.9336L26.6633 44.6436C26.5168 44.4515 26.3622 44.3115 26.1994 44.2236C26.0367 44.1325 25.8462 44.0527 25.6281 43.9844C25.6021 43.9746 25.5728 43.9648 25.5402 43.9551C25.5077 43.9453 25.4719 43.9323 25.4328 43.916C25.4328 43.8086 25.4361 43.7174 25.4426 43.6426H28.5773C28.5839 43.7533 28.5871 43.8379 28.5871 43.8965C28.3755 43.9388 28.1965 44.0055 28.05 44.0967C27.9035 44.1846 27.8303 44.2904 27.8303 44.4141C27.8303 44.4466 27.8384 44.484 27.8547 44.5264C27.871 44.5654 27.8905 44.6077 27.9133 44.6533L29.051 46.1523L29.9445 45.0488C30.0682 44.8926 30.1496 44.7803 30.1887 44.7119C30.2277 44.6403 30.2473 44.5638 30.2473 44.4824C30.2473 44.3522 30.1822 44.2367 30.052 44.1357C29.925 44.0316 29.7525 43.9583 29.5344 43.916C29.5279 43.89 29.5246 43.846 29.5246 43.7842C29.5246 43.7256 29.5279 43.6784 29.5344 43.6426H32.0393C32.0458 43.6979 32.049 43.7826 32.049 43.8965C32.0034 43.9128 31.9481 43.9307 31.883 43.9502C31.6714 44.0186 31.4826 44.0934 31.3166 44.1748C31.1506 44.2529 31.0041 44.362 30.8771 44.502C30.7307 44.6582 30.5956 44.8161 30.4719 44.9756L29.2902 46.46L31.1018 48.8477ZM34.6459 44.9658C34.6459 44.7217 34.6247 44.541 34.5824 44.4238C34.5434 44.3066 34.4864 44.2253 34.4115 44.1797C34.3399 44.1341 34.2227 44.0885 34.06 44.043C33.8972 43.9974 33.7491 43.9469 33.6156 43.8916L33.6254 43.6426H36.0473C36.6592 43.6426 37.1947 43.6768 37.6537 43.7451C38.1127 43.8102 38.5131 43.973 38.8549 44.2334C39.1967 44.4906 39.3676 44.8844 39.3676 45.415C39.3676 45.8382 39.2667 46.193 39.0648 46.4795C38.863 46.766 38.5912 46.9792 38.2494 47.1191C37.9109 47.2559 37.5333 47.3242 37.1166 47.3242C37.0417 47.3242 36.9213 47.3112 36.7553 47.2852C36.5893 47.2591 36.4379 47.2217 36.3012 47.1729C36.1677 47.124 36.101 47.0671 36.101 47.002C36.101 46.9434 36.1726 46.9141 36.3158 46.9141H36.3891C36.7829 46.9141 37.1101 46.8799 37.3705 46.8115C37.6342 46.7399 37.8425 46.5999 37.9955 46.3916C38.1518 46.18 38.2299 45.8773 38.2299 45.4834C38.2299 45.1221 38.1306 44.8307 37.932 44.6094C37.7335 44.3848 37.4796 44.2253 37.1703 44.1309C36.8611 44.0332 36.529 43.9844 36.1742 43.9844C36.031 43.9844 35.8731 43.9925 35.7006 44.0088V48.6572C35.7006 48.9339 35.7185 49.1341 35.7543 49.2578C35.7901 49.3815 35.8422 49.4629 35.9105 49.502C35.9789 49.541 36.0912 49.5736 36.2475 49.5996C36.459 49.6354 36.6462 49.6842 36.809 49.7461L36.7992 50H33.6254L33.6107 49.7461L33.767 49.7021C33.959 49.6501 34.112 49.5996 34.226 49.5508C34.3432 49.4987 34.4424 49.4222 34.5238 49.3213C34.6052 49.2204 34.6459 49.0853 34.6459 48.916V44.9658ZM41.9156 44.9512C41.9156 44.6875 41.8945 44.4954 41.8521 44.375C41.8098 44.2513 41.748 44.1683 41.6666 44.126C41.5852 44.0837 41.4534 44.0446 41.2711 44.0088C41.0497 43.96 40.8902 43.9209 40.7926 43.8916L40.8023 43.6426H44.1031V43.8965C44.0087 43.9355 43.9241 43.9648 43.8492 43.9844C43.7744 44.0007 43.6751 44.0202 43.5514 44.043C43.3951 44.069 43.2796 44.1016 43.2047 44.1406C43.1298 44.1764 43.0712 44.2529 43.0289 44.3701C42.9898 44.4873 42.9703 44.6712 42.9703 44.9219V48.4766C42.9703 48.8704 43.0077 49.1439 43.0826 49.2969C43.1607 49.4466 43.3056 49.541 43.5172 49.5801C43.7288 49.6191 44.1161 49.6387 44.6793 49.6387C45.0374 49.6387 45.3385 49.5931 45.5826 49.502C45.83 49.4076 46.027 49.2204 46.1734 48.9404L46.2467 48.7939C46.2988 48.6865 46.346 48.597 46.3883 48.5254C46.4306 48.4505 46.4794 48.3822 46.5348 48.3203L46.8277 48.3301L46.5201 50.0537C46.0839 50.0179 45.7275 50 45.4508 50H40.7975L40.7877 49.7363C40.8365 49.7201 40.9407 49.6891 41.1002 49.6436C41.2857 49.5947 41.4322 49.5475 41.5396 49.502C41.6471 49.4531 41.7366 49.3766 41.8082 49.2725C41.8798 49.165 41.9156 49.0169 41.9156 48.8281V44.9512ZM51.5096 43.5205C52.1216 43.5205 52.6831 43.6572 53.1941 43.9307C53.7052 44.2041 54.1105 44.5931 54.41 45.0977C54.7127 45.599 54.8641 46.1784 54.8641 46.8359C54.8641 47.4805 54.7078 48.0534 54.3953 48.5547C54.0861 49.0527 53.6678 49.4401 53.1404 49.7168C52.6131 49.9902 52.0369 50.127 51.4119 50.127C50.8357 50.127 50.297 49.9951 49.7957 49.7314C49.2944 49.4678 48.8908 49.0902 48.5848 48.5986C48.282 48.1071 48.1307 47.5374 48.1307 46.8896C48.1307 46.1768 48.2902 45.5664 48.6092 45.0586C48.9314 44.5508 49.3497 44.1683 49.8641 43.9111C50.3816 43.6507 50.9301 43.5205 51.5096 43.5205ZM51.6707 49.751C52.0613 49.751 52.4129 49.6468 52.7254 49.4385C53.0379 49.2301 53.282 48.929 53.4578 48.5352C53.6368 48.1413 53.7264 47.6774 53.7264 47.1436C53.7264 46.5381 53.6255 45.9896 53.4236 45.498C53.2218 45.0033 52.9386 44.6126 52.574 44.3262C52.2127 44.0397 51.8009 43.8965 51.3387 43.8965C50.9578 43.8965 50.6095 43.9958 50.2938 44.1943C49.9813 44.3896 49.7322 44.6826 49.5467 45.0732C49.3611 45.4639 49.2684 45.9342 49.2684 46.4844C49.2684 47.0964 49.3709 47.6514 49.576 48.1494C49.7811 48.6475 50.0659 49.0397 50.4305 49.3262C50.7983 49.6094 51.2117 49.751 51.6707 49.751ZM59.6094 47.3535C59.5312 47.2363 59.4645 47.1501 59.4092 47.0947C59.3571 47.0394 59.2936 46.9971 59.2188 46.9678C59.1439 46.9385 59.0413 46.9206 58.9111 46.9141L58.6035 46.8945V48.7744C58.6035 49.0088 58.623 49.1813 58.6621 49.292C58.7044 49.4027 58.7598 49.4759 58.8281 49.5117C58.8997 49.5475 59.0055 49.5768 59.1455 49.5996C59.2464 49.6159 59.3359 49.6338 59.4141 49.6533C59.4922 49.6729 59.5736 49.7038 59.6582 49.7461L59.6484 50H56.5576L56.5479 49.7461C56.6357 49.6973 56.7171 49.6631 56.792 49.6436C56.8701 49.6208 56.9596 49.6012 57.0605 49.585C57.1908 49.5654 57.2868 49.5378 57.3486 49.502C57.4137 49.4629 57.4642 49.3799 57.5 49.2529C57.5358 49.126 57.5537 48.9242 57.5537 48.6475V44.9463C57.5537 44.7152 57.5342 44.5426 57.4951 44.4287C57.4561 44.3115 57.3991 44.2318 57.3242 44.1895C57.2526 44.1439 57.1387 44.0967 56.9824 44.0479C56.8164 44.0023 56.6715 43.9518 56.5479 43.8965L56.5576 43.6426H58.8086C59.4173 43.6426 59.9495 43.6702 60.4053 43.7256C60.861 43.7809 61.2679 43.9274 61.626 44.165C61.9873 44.4027 62.168 44.7689 62.168 45.2637C62.168 45.5697 62.0817 45.835 61.9092 46.0596C61.7399 46.2809 61.5202 46.4551 61.25 46.582C60.9831 46.709 60.6966 46.7952 60.3906 46.8408C60.4297 46.8929 60.6234 47.1631 60.9717 47.6514C61.2288 48.016 61.4469 48.3203 61.626 48.5645C61.8083 48.8086 61.9889 49.0381 62.168 49.2529C62.2754 49.3669 62.3714 49.4564 62.4561 49.5215C62.5407 49.5866 62.6465 49.6387 62.7734 49.6777C62.9004 49.7168 63.0599 49.7363 63.252 49.7363V50.0098C62.9297 50.0879 62.6432 50.127 62.3926 50.127C62.0475 50.127 61.7301 50.0212 61.4404 49.8096C61.154 49.598 60.9049 49.3473 60.6934 49.0576C60.485 48.7679 60.2458 48.3984 59.9756 47.9492C59.8161 47.6758 59.694 47.4772 59.6094 47.3535ZM58.8477 46.5674C59.2643 46.5674 59.624 46.543 59.9268 46.4941C60.2295 46.4453 60.4883 46.3298 60.7031 46.1475C60.9212 45.9652 61.0303 45.6901 61.0303 45.3223C61.0303 44.9186 60.9131 44.6208 60.6787 44.4287C60.4476 44.2367 60.1758 44.1195 59.8633 44.0771C59.5508 44.0316 59.1667 44.0088 58.7109 44.0088H58.6035V46.5674H58.8477Z" fill="black"/>
</svg>
